Fly_normalized_Motion_pl06
version=1
nRows=20
nColumns=43
inDegrees=yes
endheader
time		pelvis_tilt		pelvis_list		pelvis_rotation		pelvis_tx		pelvis_ty		pelvis_tz		hip_flexion_r		hip_adduction_r		hip_rotation_r		knee_angle_r		ankle_angle_r		subtalar_angle_r		mtp_angle_r		hip_flexion_l		hip_adduction_l		hip_rotation_l		knee_angle_l		ankle_angle_l		subtalar_angle_l		mtp_angle_l		lumbar_extension		lumbar_bending		lumbar_rotation		neck_flexion		neck_lateral_bending		neck_rotation		arm_flex_r		arm_add_r		arm_rot_r		elbow_flex_r		pro_sup_r		wrist_flex_r		wrist_dev_r		hand_finger_flex_r		arm_flex_l		arm_add_l		arm_rot_l		elbow_flex_l		pro_sup_l		wrist_flex_l		wrist_dev_l		hand_finger_flex_l		
0.869318		3.563401		-7.673885		91.334743		0.001635		1.336782		0.849630		57.230183		-8.260439		-12.323896		-49.425243		-21.525018		-7.005988		12.793465		52.667706		-10.299518		-9.898743		-33.100975		-24.437499		-4.572992		-7.768653		-36.493937		1.843617		7.047591		12.968099		-3.623483		-2.227174		-43.200241		-35.403441		-36.609747		48.931254		111.002210		-16.040992		0.382672		37.881341		-49.460180		-49.839319		-44.140540		39.116157		123.314463		-40.547018		-1.487878		88.222876		
0.873409		3.552433		-7.380090		91.358129		0.001172		1.323954		0.838679		55.844208		-8.171342		-12.509403		-47.188685		-22.320840		-6.520776		12.742661		51.528037		-10.185638		-10.287836		-31.431913		-24.610657		-3.831149		-7.490212		-35.832580		1.919698		6.850190		10.637544		-3.451455		-2.062979		-45.898556		-33.841427		-37.468330		48.565454		110.861140		-16.031350		-0.111905		37.474193		-52.255265		-47.884045		-45.205685		38.383785		122.642617		-40.556830		-1.782051		87.837981		
0.877500		3.556963		-7.120173		91.401793		0.000702		1.310868		0.827589		54.493987		-8.089756		-12.737045		-44.971108		-23.124835		-6.001659		12.683905		50.448350		-10.063794		-10.649309		-29.849171		-24.701253		-3.110741		-7.263790		-35.062946		2.013488		6.697511		8.018744		-3.271018		-2.015716		-48.604504		-32.224240		-38.303564		48.220725		110.646217		-16.124438		-0.594891		37.159335		-54.935774		-45.937697		-46.160025		37.768658		121.911749		-40.539903		-1.991365		87.568537		
0.881591		3.598888		-6.763021		91.424903		0.000463		1.297895		0.816284		52.997648		-7.932225		-13.011404		-42.727226		-23.772786		-5.437765		12.740342		49.265841		-10.051092		-11.095350		-28.376477		-24.514500		-2.030161		-6.591985		-34.397433		2.057610		6.455510		5.462935		-2.832795		-1.823405		-51.064650		-30.751609		-38.899654		47.719856		110.398442		-15.863981		-1.452036		36.405091		-57.813691		-43.842135		-47.226328		37.363113		120.376014		-40.021301		-2.562871		86.930231		
0.885682		3.560679		-6.570604		91.452943		0.000005		1.284338		0.805054		51.770267		-7.870186		-13.230436		-40.605607		-24.528682		-4.911851		12.680998		48.299063		-9.884222		-11.434057		-26.978620		-24.587693		-1.707450		-6.383186		-33.485687		2.105118		6.290847		2.601602		-2.657552		-1.688410		-53.783923		-29.055530		-39.744108		47.604949		110.078744		-16.077660		-1.895095		36.104725		-60.340648		-41.858655		-48.059039		36.914193		119.664834		-39.930717		-2.697804		86.757432		
0.889773		3.546056		-6.383215		91.483244		-0.000368		1.270639		0.793721		50.550328		-7.783019		-13.487739		-38.523951		-25.107634		-4.334066		12.645082		47.374254		-9.759586		-11.772157		-25.714435		-24.505979		-1.385089		-6.140165		-32.540278		2.148084		6.094268		-0.350767		-2.406153		-1.545586		-56.402324		-27.409488		-40.497340		47.454158		109.712373		-16.230652		-2.441099		35.770159		-62.873227		-39.802435		-48.978112		36.589112		118.762843		-39.667239		-2.846902		86.598743		
0.893864		3.524538		-6.222139		91.502446		-0.000724		1.256739		0.782375		49.387193		-7.699901		-13.758921		-36.511534		-25.505645		-3.712752		12.631777		46.522740		-9.639327		-12.080619		-24.596992		-24.351059		-1.209550		-5.882447		-31.558222		2.165270		5.871258		-3.328137		-2.125677		-1.356840		-58.962520		-25.776529		-41.243737		47.354864		109.264260		-16.386511		-3.026589		35.373044		-65.355871		-37.671334		-49.985110		36.369422		117.760569		-39.305500		-2.987703		86.431554		
0.897955		3.520739		-6.188712		91.571484		-0.001084		1.242433		0.771038		48.369161		-7.668352		-14.154159		-34.584060		-25.483751		-2.688244		12.764085		45.888987		-9.518107		-12.333727		-23.673737		-24.110271		-1.082425		-5.229361		-30.441395		2.157359		5.533038		-6.223800		-1.658036		-1.053504		-61.373838		-24.334377		-41.728135		47.041980		108.457211		-16.262365		-3.809978		34.341774		-67.905197		-35.391174		-51.254964		36.334819		116.071326		-38.224514		-3.257600		85.946893		
0.902045		3.452754		-6.033553		91.550102		-0.001382		1.228230		0.759927		47.341128		-7.575024		-14.310261		-32.780740		-25.686724		-2.262956		12.763615		45.125611		-9.370815		-12.504582		-22.806162		-23.978928		-1.356715		-5.017585		-29.515113		2.116342		5.317639		-9.011642		-1.502835		-0.878317		-63.899875		-22.559845		-42.740564		47.269635		107.914732		-16.598020		-4.256260		33.876160		-70.110958		-33.230927		-52.249208		36.133924		115.415940		-38.243866		-3.307948		85.703704		
0.906136		3.433857		-5.941018		91.559596		-0.001664		1.213777		0.748907		46.392186		-7.479880		-14.570116		-31.056954		-25.606567		-1.649737		12.821523		44.522105		-9.258915		-12.601471		-22.135923		-23.780596		-1.745787		-4.793847		-28.552257		2.107267		5.083579		-11.711719		-1.319674		-0.722515		-66.261744		-20.838080		-43.747556		47.366120		107.269346		-16.857333		-4.711624		33.318734		-72.195294		-30.999873		-53.419647		35.997387		114.610581		-38.216661		-3.303884		85.477822		
0.910227		3.432324		-5.874649		91.586360		-0.001904		1.199129		0.738077		45.533744		-7.395415		-14.868585		-29.464215		-25.369139		-0.985019		12.921235		44.034665		-9.157473		-12.565228		-21.654852		-23.580595		-2.260472		-4.564971		-27.618734		2.104468		4.844852		-14.247190		-1.148439		-0.566276		-68.492326		-19.085734		-44.852032		47.452754		106.506108		-17.099187		-5.159810		32.658947		-74.150843		-28.760640		-54.644359		35.858455		113.811904		-38.274996		-3.279778		85.222602		
0.914318		3.451356		-5.820034		91.622821		-0.002183		1.184279		0.727492		44.766390		-7.316748		-15.187602		-28.035093		-25.041424		-0.357205		13.058556		43.665437		-9.069269		-12.385526		-21.382489		-23.402440		-2.918877		-4.332081		-26.757599		2.127042		4.621504		-16.553486		-1.010729		-0.443630		-70.574244		-17.288108		-46.113176		47.503232		105.623155		-17.320544		-5.565425		31.894818		-75.896579		-26.558157		-55.841748		35.653839		113.116884		-38.501871		-3.251204		84.927276		
0.918409		3.659882		-5.969909		91.888756		-0.002922		1.168824		0.717288		44.231795		-7.316980		-15.984104		-26.768115		-24.516169		0.694017		13.495279		43.767023		-8.935250		-11.574455		-21.403439		-23.442938		-4.134409		-3.696289		-25.756934		2.449957		4.322131		-18.540425		-0.962132		-0.441157		-72.589710		-15.536641		-47.411941		47.458376		104.067142		-16.946584		-6.028553		29.868872		-77.370000		-24.374376		-57.038455		35.319559		112.587876		-38.889764		-3.259647		84.346227		
0.922500		3.810830		-5.879550		91.946438		-0.003164		1.153814		0.707251		43.570847		-7.126613		-16.361798		-25.609802		-24.361874		0.853041		13.862003		43.596776		-8.962596		-11.101258		-21.549440		-23.386795		-5.138941		-3.164559		-25.122835		2.644564		4.225435		-20.357548		-1.054320		-0.540733		-74.316675		-13.553779		-49.126357		47.502046		103.008012		-16.718899		-6.286076		28.325388		-78.583371		-22.365663		-58.109453		34.799204		112.443609		-39.662263		-3.253904		84.047989		
0.926591		3.744317		-5.632279		91.879640		-0.003076		1.139019		0.697350		42.937414		-7.046810		-16.438018		-24.789488		-24.216272		0.779798		13.957515		43.250384		-8.955041		-10.938720		-21.844314		-23.142619		-5.691370		-3.020736		-24.743293		2.518450		4.122516		-22.137986		-0.885027		-0.412196		-75.622009		-11.596781		-50.850109		47.316303		102.318227		-17.133636		-6.444500		27.845597		-79.773526		-20.519627		-58.845820		34.210327		112.192195		-40.063403		-3.186449		83.917402		
0.930682		3.754381		-5.393493		91.797487		-0.003042		1.124079		0.687734		42.418375		-6.928982		-16.612845		-24.183415		-24.100048		0.685139		14.064046		43.056960		-9.021267		-10.660301		-22.384284		-22.922172		-6.484057		-2.887372		-24.454232		2.497977		4.100625		-23.665947		-0.847681		-0.388933		-76.692166		-9.661375		-52.716210		47.012285		101.495622		-17.400232		-6.559506		27.406665		-80.627737		-18.725961		-59.592031		33.442751		112.040509		-40.629960		-3.106196		83.718213		
0.934773		4.046879		-5.213105		91.872620		-0.003271		1.108814		0.678579		42.025524		-6.701351		-17.135396		-23.776238		-24.189045		0.403432		14.328245		43.173508		-9.177473		-9.798843		-23.180428		-22.929051		-7.785999		-2.615639		-24.204570		2.905653		4.144396		-24.893470		-1.226426		-0.621387		-77.609936		-7.697911		-54.893895		46.669594		100.510698		-16.977407		-6.730061		26.674088		-81.089476		-17.107699		-60.190539		32.380720		112.439716		-41.574969		-3.058119		83.410625		
0.938864		4.024703		-4.883744		91.800482		-0.003143		1.093847		0.669424		41.664514		-6.667269		-17.267344		-23.718741		-24.146717		0.172942		14.422508		43.070696		-9.255716		-9.566269		-24.089350		-22.571620		-8.383165		-2.477294		-24.181242		2.827340		4.119912		-26.141040		-1.045095		-0.514996		-78.036217		-6.000639		-56.681028		45.953201		99.886214		-17.332246		-6.686942		26.296374		-81.566742		-15.572815		-60.505637		31.334021		112.378080		-41.777570		-2.836552		83.280836		
0.942955		4.026955		-4.511116		91.665110		-0.002903		1.078826		0.660616		41.397070		-6.588643		-17.338409		-23.919871		-24.119346		-0.098287		14.491695		43.024631		-9.401849		-9.311085		-25.184669		-22.177545		-8.995579		-2.357263		-24.304805		2.773300		4.172445		-27.145688		-1.012058		-0.415313		-78.212432		-4.414422		-58.521842		45.128600		99.257563		-17.576656		-6.656816		26.095258		-81.775119		-14.127549		-60.685283		30.155383		112.300489		-41.932192		-2.548830		83.063054		
0.947045		4.042546		-4.096991		91.535048		-0.002684		1.063759		0.652135		41.207492		-6.522992		-17.362697		-24.378806		-24.087601		-0.340853		14.549658		43.050115		-9.566614		-9.050133		-26.474062		-21.754520		-9.496888		-2.233949		-24.565451		2.733122		4.226247		-27.946475		-1.005212		-0.345592		-78.119898		-3.057287		-60.243969		44.102137		98.737272		-17.714395		-6.613710		26.031407		-81.759485		-12.793054		-60.612096		28.858074		112.208756		-41.917994		-2.196143		82.793512		
